<svg id="Icons" enable-background="new 0 0 128 128" height="100px" viewBox="0 0 128 128" width="100px" xmlns="http://www.w3.org/2000/svg"><path id="Block_User" d="m96 64c-5.898 0-11.41 1.632-16.16 4.427l-5.325-2.13c-1.527-.609-2.515-2.07-2.515-3.715v-3.102l.25-.055c6.918-1.898 11.75-8.241 11.75-15.425v-16c0-15.437-12.563-28-28-28-15.438 0-28 12.563-28 28v16c0 7.184 4.832 13.527 12 15.48v3.102c0 1.645-.988 3.105-2.512 3.715l-24.914 9.965c-7.64 3.054-12.574 10.343-12.574 18.57v13.168c0 4.41 3.59 8 8 8h63.06c5.87 7.305 14.862 12 24.94 12 17.645 0 32-14.355 32-32s-14.355-32-32-32zm-88 44v-13.168c0-4.934 2.961-9.309 7.543-11.141l24.918-9.965c4.578-1.835 7.539-6.206 7.539-11.144v-3.102c0-3.637-2.461-6.758-6.133-7.766-3.453-.948-5.867-4.12-5.867-7.714v-16c0-11.027 8.973-20 20-20s20 8.973 20 20v16c0 3.594-2.414 6.766-5.871 7.715-3.668 1.008-6.129 4.129-6.129 7.765v3.102c0 4.938 2.961 9.309 7.543 11.145l1.121.448c-5.356 5.723-8.664 13.387-8.664 21.825 0 4.245.849 8.29 2.356 12zm64-12c0-13.234 10.766-24 24-24 5.175 0 9.96 1.663 13.884 4.459l-33.425 33.425c-2.796-3.924-4.459-8.709-4.459-13.884zm24 24c-5.175 0-9.96-1.663-13.884-4.459l33.425-33.425c2.796 3.924 4.459 8.709 4.459 13.884 0 13.234-10.766 24-24 24z"/></svg>