<svg id="Image" enable-background="new 0 0 30 30" height="20" viewBox="0 0 30 30" width="20" xmlns="http://www.w3.org/2000/svg"><g><g><path d="m12 14c-2.206 0-4-1.794-4-4v-3c0-2.206 1.794-4 4-4s4 1.794 4 4v3c0 2.206-1.794 4-4 4zm0-10c-1.654 0-3 1.346-3 3v3c0 1.654 1.346 3 3 3s3-1.346 3-3v-3c0-1.654-1.346-3-3-3z" fill="#000"/></g><g><path d="m10.503 22.924c-.012 0-.023 0-.035-.001-2.423-.167-5.224-.564-7.626-2.254-.786-.568-1.058-1.564-.668-2.425 1.359-3.06 4.18-5.305 7.544-6.003.269-.055.534.117.591.388.056.271-.118.535-.388.591-3.05.632-5.604 2.663-6.834 5.433-.193.426-.054.918.336 1.202 2.195 1.544 4.828 1.913 7.114 2.07.275.019.483.258.465.533-.019.264-.238.466-.499.466z" fill="#000"/></g><g><path d="m16.536 14.023c-.072 0-.146-.016-.215-.049-.711-.339-1.465-.593-2.242-.754-.271-.056-.444-.321-.388-.591.056-.271.32-.443.591-.388.855.178 1.687.458 2.47.832.249.119.355.417.236.667-.087.178-.265.283-.452.283z" fill="#000"/></g><g><path d="m23 18c-1.103 0-2-.897-2-2s.897-2 2-2 2 .897 2 2-.897 2-2 2zm0-3c-.551 0-1 .449-1 1s.449 1 1 1 1-.449 1-1-.449-1-1-1z" fill="#000"/></g><g><path d="m22.5 22c-3.033 0-5.5-2.467-5.5-5.5s2.467-5.5 5.5-5.5 5.5 2.467 5.5 5.5-2.467 5.5-5.5 5.5zm0-10c-2.481 0-4.5 2.019-4.5 4.5s2.019 4.5 4.5 4.5 4.5-2.019 4.5-4.5-2.019-4.5-4.5-4.5z" fill="#000"/></g><g><path d="m15 27h-3.5c-.276 0-.5-.224-.5-.5v-2c0-.133.053-.26.146-.354l6.3-6.3c.195-.195.512-.195.707 0s.195.512 0 .707l-6.153 6.154v1.293h2.5v-1.5c0-.276.224-.5.5-.5h2v-1.5c0-.276.224-.5.5-.5h1.793l1.153-1.153c.195-.195.512-.195.707 0s.195.512 0 .707l-1.3 1.3c-.093.093-.22.146-.353.146h-1.5v1.5c0 .276-.224.5-.5.5h-2v1.5c0 .276-.224.5-.5.5z" fill="#000"/></g></g></svg>