<?xml version="1.0"?>
<svg xmlns="http://www.w3.org/2000/svg" xmlns:xlink="http://www.w3.org/1999/xlink" xmlns:svgjs="http://svgjs.com/svgjs" version="1.1" width="512" height="512" x="0" y="0" viewBox="0 0 24 24" style="enable-background:new 0 0 512 512" xml:space="preserve" class=""><g><g xmlns="http://www.w3.org/2000/svg"><path d="m21.51 3.471-9.25-3.424c-.168-.062-.353-.062-.521 0l-9.249 3.424c-.295.108-.49.389-.49.703v8.001c0 9.103 9.71 11.774 9.808 11.8.063.016.128.025.192.025s.129-.009.192-.025c.098-.026 9.808-2.698 9.808-11.8v-8.001c0-.314-.195-.595-.49-.703zm-2.521 5.573-1.087 6.333c-.062.36-.374.623-.739.623h-10.326c-.365 0-.677-.263-.739-.623l-1.087-6.333c-.048-.277.064-.558.289-.727s.526-.197.779-.074l2.894 1.409 2.372-4.267c.264-.477 1.047-.477 1.311 0l2.372 4.267 2.894-1.409c.253-.123.553-.095.779.074.224.169.336.45.288.727z" fill="#000" data-original="#000000" class=""/></g></g></svg>
