<?xml version="1.0"?>
<svg xmlns="http://www.w3.org/2000/svg" viewBox="0 0 32 32" width="512" height="512"><g id="forum"><path d="M27,8H25V6a3,3,0,0,0-3-3H5A3,3,0,0,0,2,6V23a1,1,0,0,0,.62.92A.84.84,0,0,0,3,24a1,1,0,0,0,.71-.29L7,20.41V22a3,3,0,0,0,3,3H24.59l3.7,3.71A1,1,0,0,0,29,29a.84.84,0,0,0,.38-.08A1,1,0,0,0,30,28V11A3,3,0,0,0,27,8ZM4,20.59V6A1,1,0,0,1,5,5H22a1,1,0,0,1,1,1V17a1,1,0,0,1-1,1H7a1,1,0,0,0-.71.29Zm24,5-2.29-2.3A1,1,0,0,0,25,23H10a1,1,0,0,1-1-1V20H22a3,3,0,0,0,3-3V10h2a1,1,0,0,1,1,1Z"/></g></svg>
