<svg width="20" height="20" viewBox="0 0 20 20" fill="none" xmlns="http://www.w3.org/2000/svg">
<path opacity="0.4" d="M18.9248 10.6472C18.9464 10.0342 18.9582 9.39975 18.9582 8.75016C18.9582 8.1006 18.9464 7.46604 18.9248 6.85319C18.858 4.95887 18.8471 3.67776 17.8351 2.65804C17.3266 2.1457 16.7494 1.88492 16.0488 1.74333C15.393 1.6108 14.5906 1.5765 13.6178 1.53491L13.5627 1.53255C12.4378 1.48443 11.2408 1.4585 9.99984 1.4585C8.75884 1.4585 7.56192 1.48443 6.43701 1.53255L6.38186 1.53491C5.40908 1.5765 4.60667 1.6108 3.95085 1.74333C3.25025 1.88492 2.67307 2.1457 2.16455 2.65804C1.1526 3.67776 1.1417 4.95888 1.07487 6.85319C1.05325 7.46604 1.0415 8.1006 1.0415 8.75016C1.0415 9.39975 1.05325 10.0342 1.07487 10.6472C1.1417 12.5414 1.1526 13.8226 2.16455 14.8422C2.67307 15.3547 3.25025 15.6154 3.95085 15.757C4.52864 15.8737 5.22 15.9134 6.0415 15.9498V17.3089C6.04169 17.9897 6.59358 18.5417 7.27441 18.5418C7.56889 18.5418 7.85409 18.4365 8.07764 18.2448L9.894 16.6872C10.3844 16.2667 10.5198 16.1617 10.6655 16.1061C10.8109 16.0507 10.9884 16.039 11.6527 16.0263C12.3078 16.0139 12.9461 15.9942 13.5627 15.9677L13.6178 15.9654C14.5906 15.9238 15.393 15.8895 16.0488 15.757C16.7494 15.6154 17.3266 15.3547 17.8351 14.8422C18.8471 13.8226 18.858 12.5414 18.9248 10.6472Z" fill="#3A7DFF"/>
<path d="M10.6413 5.31545C10.5074 4.66071 9.622 4.61944 9.3945 5.19257L9.35867 5.31545C9.08909 6.63387 8.10591 7.68221 6.8253 8.04494L6.5657 8.10842C5.86743 8.25114 5.86741 9.24825 6.5657 9.391C7.9719 9.6785 9.07117 10.7778 9.35867 12.1839C9.50142 12.8823 10.4985 12.8823 10.6413 12.1839C10.9288 10.7778 12.028 9.6785 13.4342 9.391C14.1325 9.24825 14.1325 8.25114 13.4342 8.10842C12.028 7.82088 10.9288 6.72165 10.6413 5.31545Z" fill="#3A7DFF"/>
</svg>
