<svg width="16" height="16" viewBox="0 0 16 16" fill="none" xmlns="http://www.w3.org/2000/svg">
<g clip-path="url(#clip0_349_2516)">
<path d="M4.31116 7.97204H9.60616M4.31116 5.31592H7.62056" stroke="#484A61" stroke-width="1.2" stroke-linejoin="round"/>
<path d="M5.74514 1.30031C1.90784 1.74429 -0.0262485 6.17909 2.23483 9.70296L1.33815 11.9344C1.31645 11.9884 1.36953 12.0424 1.42388 12.0215L3.80455 11.1087C4.73653 11.8863 8.79824 12.004 10.1207 11.1087M5.74514 1.30031C5.83785 1.29511 5.93157 1.29248 6.02626 1.29248M5.74514 1.30031H6.87431L7.82517 1.29366M10.1207 11.1087C11.8074 10.2547 13.3721 7.90356 12.211 4.4238C11.9564 3.5213 10.5623 1.35158 7.82517 1.29366M10.1207 11.1087C11.8074 10.2547 13.4307 7.87816 12.2696 4.39843C12.015 3.49598 10.5635 1.35115 7.82517 1.29366M7.82517 1.29366C7.78804 1.29287 7.75064 1.29248 7.71304 1.29248M7.82517 1.29366L7.99417 1.29248" stroke="#484A61" stroke-width="1.2"/>
<path d="M5.27209 13.4663C6.76703 14.7409 10.826 14.5555 12.072 13.7877L14.3965 14.5765C14.45 14.5947 14.5005 14.542 14.48 14.4893L13.6474 12.3414C14.6532 11.0915 14.8312 9.17214 14.3417 7.31494" stroke="#484A61" stroke-width="1.2"/>
</g>
<defs>
<clipPath id="clip0_349_2516">
<rect width="16" height="16" fill="white"/>
</clipPath>
</defs>
</svg>
