<svg width="20" height="20" viewBox="0 0 20 20" fill="none" xmlns="http://www.w3.org/2000/svg">
<path opacity="0.4" d="M17.291 15.5516L17.2918 14.9998V9.1665V9.12759C17.2918 8.37692 17.2918 7.7507 17.2251 7.25407C17.1635 6.79638 17.0372 6.37781 16.7522 6.02605L16.6204 5.87955C16.3349 5.59403 15.997 5.43574 15.6243 5.34489C15.6243 4.99771 15.6243 4.67914 15.5893 4.41878C15.5495 4.12255 15.4554 3.8096 15.1979 3.55209C14.9404 3.29457 14.6274 3.20047 14.3312 3.16065C14.053 3.12324 13.7087 3.12484 13.3335 3.12484H5.41683C5.07165 3.12484 4.79183 3.40466 4.79183 3.74984C4.79183 4.09501 5.07165 4.37484 5.41683 4.37484H13.3335C13.7438 4.37484 13.9888 4.37648 14.1644 4.40006C14.2448 4.41089 14.2854 4.42352 14.3036 4.43099C14.3077 4.4327 14.3109 4.43422 14.3125 4.43506L14.3142 4.43587L14.3149 4.4375C14.3157 4.4391 14.3173 4.4423 14.319 4.44645C14.3265 4.4646 14.3391 4.50515 14.3499 4.58561C14.3694 4.73043 14.3727 4.92241 14.3735 5.2155C14.0752 5.20812 13.7482 5.20815 13.3932 5.20817H13.3335H5.41683C4.64095 5.20817 4.00692 4.60192 3.96175 3.83773V3.75065C3.96175 3.73944 3.9599 3.72835 3.95931 3.71729C3.97662 2.92691 4.6223 2.2915 5.41683 2.2915H16.286L16.3502 2.28825C16.6652 2.25607 16.911 1.98998 16.911 1.6665C16.911 1.34303 16.6652 1.07694 16.3502 1.04476L16.286 1.0415H5.41683C3.92106 1.0415 2.7085 2.25406 2.7085 3.74984C2.7085 3.7877 2.7102 3.8254 2.71175 3.86295V13.3332V13.387C2.71173 14.5228 2.7117 15.4388 2.8086 16.1595C2.90942 16.9094 3.12507 17.5411 3.62646 18.0427C4.12806 18.5443 4.76033 18.7605 5.51041 18.8613C6.23138 18.9582 7.14788 18.9582 8.28415 18.9582H8.33675H13.3335H13.3725C14.1232 18.9582 14.7493 18.9582 15.2459 18.8914C15.7689 18.8211 16.241 18.6663 16.6204 18.2868L16.7522 18.1403C17.0372 17.7885 17.1635 17.3699 17.2251 16.9123C17.276 16.5334 17.2882 16.0789 17.291 15.5516Z" fill="#3A7DFF"/>
<path d="M10.4168 13.1248C10.762 13.1248 11.0418 13.4047 11.0418 13.7498C11.0418 14.095 10.762 14.3748 10.4168 14.3748H7.0835C6.73832 14.3748 6.4585 14.095 6.4585 13.7498C6.4585 13.4047 6.73832 13.1248 7.0835 13.1248H10.4168ZM12.9168 9.7915C13.262 9.7915 13.5418 10.0713 13.5418 10.4165C13.5418 10.7617 13.262 11.0415 12.9168 11.0415H7.0835C6.73832 11.0415 6.4585 10.7617 6.4585 10.4165C6.4585 10.0713 6.73832 9.7915 7.0835 9.7915H12.9168Z" fill="#3A7DFF"/>
</svg>
