<svg width="20" height="20" viewBox="0 0 20 20" fill="none" xmlns="http://www.w3.org/2000/svg">
<path opacity="0.4" d="M1.07487 10.6472C1.05325 10.0342 1.0415 9.39975 1.0415 8.75016C1.0415 8.1006 1.05325 7.46604 1.07487 6.85319C1.1417 4.95887 1.1526 3.67776 2.16455 2.65804C2.67307 2.1457 3.25025 1.88492 3.95085 1.74333C4.60667 1.6108 5.40908 1.5765 6.38186 1.53491L6.43701 1.53255C7.56192 1.48443 8.75884 1.4585 9.99984 1.4585C11.2408 1.4585 12.4378 1.48443 13.5627 1.53255L13.6178 1.53491C14.5906 1.5765 15.393 1.6108 16.0488 1.74333C16.7494 1.88492 17.3266 2.1457 17.8351 2.65804C18.8471 3.67776 18.858 4.95888 18.9248 6.85319C18.9464 7.46604 18.9582 8.1006 18.9582 8.75016C18.9582 9.39975 18.9464 10.0342 18.9248 10.6472C18.858 12.5414 18.8471 13.8226 17.8351 14.8422C17.3266 15.3547 16.7494 15.6154 16.0488 15.757C15.471 15.8737 14.7797 15.9134 13.9582 15.9498V17.3089C13.958 17.9897 13.4061 18.5417 12.7253 18.5418C12.4308 18.5418 12.1456 18.4365 11.922 18.2448L10.1057 16.6872C9.61525 16.2667 9.47992 16.1617 9.33417 16.1061C9.18875 16.0507 9.01125 16.039 8.347 16.0263C7.69186 16.0139 7.0536 15.9942 6.43701 15.9677L6.3819 15.9654C5.40907 15.9238 4.60669 15.8895 3.95085 15.757C3.25025 15.6154 2.67307 15.3547 2.16455 14.8422C1.1526 13.8226 1.1417 12.5414 1.07487 10.6472Z" fill="#3A7DFF"/>
<path d="M6.68148 7.9165L6.76693 7.92057C7.1871 7.9633 7.51481 8.3184 7.51481 8.74984C7.51481 9.18125 7.1871 9.53642 6.76693 9.57909L6.68148 9.58317H6.67415C6.21392 9.58317 5.84082 9.21009 5.84082 8.74984C5.84082 8.2896 6.21392 7.9165 6.67415 7.9165H6.68148ZM10.0115 7.9165C10.4716 7.91669 10.8449 8.28971 10.8449 8.74984C10.8449 9.20992 10.4716 9.583 10.0115 9.58317H10.0035C9.5433 9.583 9.17013 9.21 9.17013 8.74984C9.17013 8.2897 9.5433 7.91666 10.0035 7.9165H10.0115ZM13.3408 7.9165C13.801 7.91652 14.1741 8.28961 14.1741 8.74984C14.1741 9.21009 13.801 9.58317 13.3408 9.58317H13.3335C12.8733 9.58317 12.5001 9.21009 12.5001 8.74984C12.5001 8.2896 12.8733 7.9165 13.3335 7.9165H13.3408Z" fill="#3A7DFF"/>
</svg>
