<svg width="20" height="20" viewBox="0 0 20 20" fill="none" xmlns="http://www.w3.org/2000/svg">
<path opacity="0.4" d="M17.1838 1.47881C17.5158 1.52074 17.824 1.638 18.0927 1.90671C18.3614 2.17543 18.4787 2.48357 18.5206 2.81562C18.5561 3.09629 18.5377 3.4682 18.5211 3.80721C18.4216 5.84131 17.8079 7.83306 16.2722 9.36883L15.0342 10.6068C14.4939 11.1471 14.2558 11.3954 14.1383 11.6249C14.0568 11.7842 14.0169 11.9688 14.1075 12.4453C14.2068 12.8423 14.3313 13.3397 14.3322 13.8038C14.3332 14.3152 14.1914 14.8479 13.7402 15.2991C13.3098 15.7295 12.8037 16.0409 12.2134 16.0409C11.6232 16.0409 11.117 15.7295 10.6866 15.2991L4.70037 9.31283C4.26993 8.88242 3.9585 8.37625 3.9585 7.78601C3.95849 7.19571 4.26991 6.68959 4.70037 6.25914C5.15152 5.80799 5.68422 5.66628 6.19556 5.66725C6.65977 5.66813 7.1571 5.79261 7.55412 5.89196C8.03055 5.98252 8.21525 5.94263 8.3745 5.86111C8.604 5.74356 8.85233 5.5055 9.39266 4.96523L10.6306 3.72725C12.1663 2.19148 14.1581 1.57784 16.1922 1.47833C16.5312 1.46166 16.9032 1.44338 17.1838 1.47881Z" fill="#3A7DFF"/>
<path fill-rule="evenodd" clip-rule="evenodd" d="M13.3301 5.83333C13.3301 5.3731 13.7032 5 14.1634 5H14.1709C14.6312 5 15.0042 5.3731 15.0042 5.83333C15.0042 6.29357 14.6312 6.66667 14.1709 6.66667H14.1634C13.7032 6.66667 13.3301 6.29357 13.3301 5.83333Z" fill="#3A7DFF"/>
<path fill-rule="evenodd" clip-rule="evenodd" d="M4.39329 10.8554C4.70245 11.1646 4.70245 11.6658 4.39329 11.975L2.80995 13.5583C2.50079 13.8675 1.99954 13.8675 1.69037 13.5583C1.3812 13.2492 1.3812 12.7479 1.69037 12.4387L3.2737 10.8554C3.58287 10.5462 4.08412 10.5462 4.39329 10.8554ZM5.6487 13.2304C5.95787 12.9212 6.45912 12.9212 6.76829 13.2304C7.07745 13.5396 7.07745 14.0408 6.76829 14.35L2.80995 18.3083C2.50079 18.6175 1.99954 18.6175 1.69037 18.3083C1.3812 17.9992 1.3812 17.4979 1.69037 17.1887L5.6487 13.2304ZM9.14333 15.6054C9.45241 15.9146 9.45241 16.4158 9.14333 16.725L7.55995 18.3083C7.25079 18.6175 6.74954 18.6175 6.44037 18.3083C6.1312 17.9992 6.1312 17.4979 6.44037 17.1887L8.0237 15.6054C8.33287 15.2962 8.83416 15.2962 9.14333 15.6054Z" fill="#3A7DFF"/>
</svg>
