<svg width="24" height="24" viewBox="0 0 24 24" fill="none" xmlns="http://www.w3.org/2000/svg">
<path d="M0.221893 11.4087C3.6994 11.6055 6.9089 13.3398 8.97921 16.1408L9.23264 16.4837" stroke="#00DCF3" stroke-width="4.06022"/>
<path d="M11.7164 0.326772C11.6601 6.57175 6.46103 11.6359 0.219924 11.409" stroke="#3A7DFF" stroke-width="4.06022"/>
<path d="M23.3842 12.1973C19.9067 12.0004 16.6972 10.2661 14.6269 7.46512L14.3735 7.12225" stroke="#74ED90" stroke-width="4.06022"/>
<path d="M11.8897 23.2792C11.946 17.0342 17.1451 11.9701 23.3862 12.197" stroke="#36D462" stroke-width="4.06022"/>
<path d="M20.5684 0.48291C20.5751 0.48291 20.5819 0.48291 20.5888 0.48291C20.5893 0.48816 20.5897 0.49341 20.5902 0.49882C20.633 0.982349 20.7784 1.43993 21.0942 1.91742C21.0983 1.92309 21.0983 1.92309 21.1024 1.92887C21.1451 1.98828 21.19 2.04533 21.2372 2.1012C21.2423 2.10734 21.2474 2.11348 21.2526 2.11963C21.3064 2.18362 21.3642 2.24391 21.4232 2.30317C21.4269 2.30693 21.4307 2.3107 21.4345 2.31458C21.4553 2.33527 21.4765 2.35506 21.4987 2.37419C21.5098 2.38378 21.5206 2.39372 21.5313 2.40367C21.5571 2.4269 21.5841 2.44818 21.6114 2.4694C21.6238 2.47902 21.6361 2.4888 21.6483 2.49875C22.0082 2.79337 22.4596 2.97899 23.1924 3.08647C23.1924 3.09321 23.1924 3.09994 23.1924 3.10689C23.1883 3.10722 23.1842 3.10755 23.1801 3.10789C22.769 3.14201 22.3806 3.25207 21.6047 3.7297C21.5993 3.73425 21.5938 3.73881 21.5884 3.74336C21.554 3.77214 21.5204 3.8016 21.4873 3.8318C21.4807 3.8377 21.4807 3.8377 21.4739 3.84372C21.4403 3.874 21.408 3.90547 21.3759 3.93741C21.3719 3.94147 21.3678 3.94553 21.3636 3.94972C21.3391 3.97426 21.3159 3.99952 21.2933 4.02579C21.2859 4.034 21.2784 4.04219 21.271 4.05036C21.2468 4.07717 21.2239 4.10478 21.2014 4.13299C21.1988 4.13623 21.1962 4.13947 21.1936 4.1428C20.8919 4.52162 20.6947 4.97295 20.5888 5.71044C20.5821 5.71044 20.5753 5.71044 20.5684 5.71044C20.5679 5.70519 20.5675 5.69994 20.567 5.69453C20.5333 5.31389 20.4382 4.95583 20.2672 4.61287C20.2651 4.6086 20.263 4.60434 20.2608 4.59994C20.1756 4.43025 20.0683 4.26771 19.9456 4.12278C19.941 4.11734 19.9365 4.1119 19.9319 4.10645C19.9031 4.07211 19.8737 4.03848 19.8435 4.00537C19.8376 3.99876 19.8376 3.99876 19.8316 3.99201C19.8013 3.95838 19.7698 3.92606 19.7379 3.89402C19.7338 3.88993 19.7298 3.88584 19.7256 3.88163C19.701 3.85716 19.6758 3.83397 19.6495 3.81138C19.6413 3.80395 19.6331 3.79651 19.6249 3.78904C19.5981 3.76491 19.5705 3.74195 19.5423 3.71949C19.5391 3.7169 19.5358 3.71432 19.5325 3.71165C19.1479 3.40534 18.6899 3.20688 17.9648 3.10689C17.9648 3.10015 17.9648 3.09341 17.9648 3.08647C17.9701 3.08601 17.9753 3.08555 17.9807 3.08508C18.1571 3.0694 18.3295 3.04549 18.5009 2.99968C18.5068 2.99809 18.5128 2.9965 18.519 2.99486C18.8936 2.89377 19.2555 2.71522 19.5525 2.46366C19.5579 2.4591 19.5634 2.45455 19.5688 2.45C19.6032 2.42121 19.6368 2.39176 19.6699 2.36156C19.6743 2.35762 19.6787 2.35368 19.6833 2.34963C19.7169 2.31936 19.7492 2.28789 19.7813 2.25595C19.7874 2.24985 19.7874 2.24985 19.7937 2.24363C19.8153 2.22189 19.8362 2.19973 19.8563 2.17645C19.8658 2.16538 19.8757 2.15468 19.8856 2.14395C19.9088 2.11822 19.9301 2.09124 19.9513 2.06385C19.961 2.05144 19.9707 2.03918 19.9807 2.02704C20.1051 1.87508 20.2044 1.70428 20.2927 1.52944C20.2958 1.52343 20.2958 1.52343 20.2989 1.5173C20.4597 1.19707 20.5418 0.83861 20.5684 0.48291Z" fill="#3A7DFF"/>
</svg>
