<svg width="12" height="12" viewBox="0 0 12 12" fill="none" xmlns="http://www.w3.org/2000/svg">
<g clip-path="url(#clip0_327_2388)">
<path d="M5.00006 6.49998C5.21479 6.78705 5.48874 7.02457 5.80334 7.19645C6.11793 7.36833 6.46581 7.47054 6.82339 7.49615C7.18096 7.52176 7.53985 7.47017 7.87573 7.34487C8.21161 7.21958 8.51662 7.02352 8.77006 6.76998L10.2701 5.26998C10.7255 4.79848 10.9774 4.16697 10.9717 3.51148C10.9661 2.85599 10.7031 2.22896 10.2396 1.76544C9.77609 1.30192 9.14906 1.03899 8.49356 1.0333C7.83807 1.0276 7.20657 1.27959 6.73506 1.73498L5.87506 2.58998" stroke="#3A7DFF" stroke-width="1.14286" stroke-linecap="round" stroke-linejoin="round"/>
<path d="M6.99998 5.49962C6.78525 5.21256 6.5113 4.97503 6.1967 4.80315C5.88211 4.63128 5.53422 4.52907 5.17665 4.50346C4.81908 4.47785 4.46018 4.52944 4.12431 4.65473C3.78843 4.78003 3.48342 4.97609 3.22998 5.22962L1.72998 6.72962C1.27458 7.20113 1.0226 7.83264 1.02829 8.48813C1.03399 9.14362 1.29691 9.77065 1.76043 10.2342C2.22395 10.6977 2.85098 10.9606 3.50647 10.9663C4.16197 10.972 4.79347 10.72 5.26498 10.2646L6.11998 9.40962" stroke="#3A7DFF" stroke-width="1.14286" stroke-linecap="round" stroke-linejoin="round"/>
</g>
<defs>
<clipPath id="clip0_327_2388">
<rect width="12" height="12" fill="white"/>
</clipPath>
</defs>
</svg>
