<svg width="20" height="20" viewBox="0 0 20 20" fill="none" xmlns="http://www.w3.org/2000/svg">
<path opacity="0.4" d="M1.0415 9.99984C1.0415 5.05229 5.05229 1.0415 9.99984 1.0415C14.9474 1.0415 18.9582 5.05229 18.9582 9.99984C18.9582 14.9474 14.9474 18.9582 9.99984 18.9582C5.05229 18.9582 1.0415 14.9474 1.0415 9.99984Z" fill="#3A7DFF"/>
<path fill-rule="evenodd" clip-rule="evenodd" d="M9.13358 7.16796L11.4106 6.23037C13.1185 5.52712 13.9724 5.17549 14.3983 5.60138C14.8242 6.02725 14.4726 6.8812 13.7693 8.58909L12.8317 10.8661C12.5489 11.553 12.4075 11.8964 12.1519 12.1519C11.8964 12.4075 11.553 12.5489 10.8661 12.8317L8.58909 13.7693C6.8812 14.4726 6.02725 14.8242 5.60138 14.3983C5.17549 13.9724 5.52712 13.1185 6.23037 11.4106L7.16796 9.13358C7.45079 8.44667 7.5922 8.10326 7.84774 7.84774C8.10326 7.5922 8.44667 7.45079 9.13358 7.16796ZM10.8332 9.99984C10.8332 9.53959 10.4601 9.1665 9.99984 9.1665C9.53959 9.1665 9.1665 9.53959 9.1665 9.99984V10.0082C9.1665 10.4684 9.53959 10.8415 9.99984 10.8415C10.4601 10.8415 10.8332 10.4684 10.8332 10.0082V9.99984Z" fill="#3A7DFF"/>
</svg>
