<svg width="24" height="24" viewBox="0 0 24 24" fill="none" xmlns="http://www.w3.org/2000/svg">
<path d="M20.2168 10.5557L5.49014 1.24854C5.24209 1.09168 4.9581 1.00599 4.6674 1.0003C4.37669 0.994613 4.08977 1.06912 3.83615 1.21617C3.58254 1.36321 3.37139 1.57748 3.22442 1.83692C3.07746 2.09637 3 2.39162 3 2.6923V21.3083C3.00024 21.6089 3.07785 21.904 3.22487 22.1633C3.37189 22.4226 3.58301 22.6367 3.83654 22.7837C4.09007 22.9307 4.37688 23.0053 4.66749 22.9997C4.9581 22.9941 5.24205 22.9087 5.49014 22.7521L20.2168 13.4449C20.4561 13.2936 20.6537 13.0813 20.7909 12.8284C20.928 12.5754 21 12.2903 21 12.0003C21 11.7103 20.928 11.4252 20.7909 11.1722C20.6537 10.9193 20.4561 10.707 20.2168 10.5557V10.5557Z" fill="white"/>
</svg>
