<svg width="16" height="16" viewBox="0 0 16 16" fill="none" xmlns="http://www.w3.org/2000/svg">
<g clip-path="url(#clip0_349_2522)">
<path d="M8.0026 14.6673C11.6845 14.6673 14.6693 11.6825 14.6693 8.00065C14.6693 4.31875 11.6845 1.33398 8.0026 1.33398C4.32071 1.33398 1.33594 4.31875 1.33594 8.00065C1.33594 11.6825 4.32071 14.6673 8.0026 14.6673Z" stroke="#484A61" stroke-width="1.5"/>
<path d="M5 11.3327C6.55447 9.70455 9.4288 9.62788 11 11.3327M9.6634 6.33268C9.6634 7.25315 8.91613 7.99935 7.99433 7.99935C7.0726 7.99935 6.32531 7.25315 6.32531 6.33268C6.32531 5.41221 7.0726 4.66602 7.99433 4.66602C8.91613 4.66602 9.6634 5.41221 9.6634 6.33268Z" stroke="#484A61" stroke-width="1.5" stroke-linecap="round"/>
</g>
<defs>
<clipPath id="clip0_349_2522">
<rect width="16" height="16" fill="white"/>
</clipPath>
</defs>
</svg>
