<svg width="20" height="20" viewBox="0 0 20 20" fill="none" xmlns="http://www.w3.org/2000/svg">
<g opacity="0.4">
<path d="M10.8301 1.6935C10.9201 1.25284 11.3504 0.968603 11.7911 1.05864C15.2025 1.75567 17.9271 4.336 18.8546 7.66972C18.8829 7.77091 18.9336 7.95199 18.9496 8.09185C18.9687 8.2606 18.9762 8.6461 18.6465 8.94418C18.3089 9.24926 17.9166 9.19268 17.7561 9.1556C17.6185 9.12385 17.4677 9.06285 17.3677 9.02234L15.7702 8.29862C15.3607 8.11256 14.9162 7.66972 15.3656 7.2203L16.434 6.152C15.3451 4.37689 13.5594 3.08236 11.465 2.65443C11.0243 2.56439 10.7401 2.13417 10.8301 1.6935Z" fill="#3A7DFF"/>
<path d="M4.22836 11.7028C4.63784 11.8888 5.08232 12.3317 4.6329 12.7811L3.5646 13.8494C4.6534 15.6245 6.43921 16.919 8.53361 17.347C8.97428 17.437 9.25853 17.8673 9.16844 18.3079C9.07844 18.7486 8.64819 19.0328 8.20753 18.9428C4.79611 18.2458 2.0714 15.6654 1.14404 12.3317C1.11569 12.2305 1.06497 12.0494 1.04904 11.9096C1.02984 11.7408 1.02231 11.3553 1.3521 11.0573C1.68965 10.7522 2.08204 10.8087 2.24252 10.8458C2.38007 10.8776 2.53087 10.9386 2.63089 10.9791L4.22836 11.7028Z" fill="#3A7DFF"/>
</g>
<path d="M8.29813 4.22836C8.11207 4.63784 7.66923 5.08232 7.21981 4.63291L6.15151 3.56461C4.3764 4.65341 3.08187 6.43921 2.65394 8.53361C2.5639 8.97427 2.13368 9.25852 1.69301 9.16844C1.25236 9.07844 0.968114 8.64819 1.05815 8.20753C1.75518 4.79611 4.33552 2.07141 7.66923 1.14404C7.77042 1.11568 7.95148 1.06497 8.09136 1.04905C8.26011 1.02983 8.64561 1.02231 8.9437 1.35211C9.2487 1.68966 9.1922 2.08204 9.15511 2.24252C9.12336 2.38007 9.06236 2.53086 9.02186 2.6309L8.29813 4.22836Z" fill="#3A7DFF"/>
<path d="M18.3069 10.8306C18.7476 10.9206 19.0318 11.3509 18.9418 11.7915C18.2448 15.203 15.6644 17.9276 12.3307 18.855C12.2295 18.8834 12.0484 18.9341 11.9085 18.95C11.7398 18.9692 11.3544 18.9768 11.0563 18.647C10.7512 18.3094 10.8077 17.917 10.8448 17.7565C10.8765 17.619 10.9376 17.4682 10.978 17.3682L11.7018 15.7707C11.8879 15.3612 12.3307 14.9167 12.7801 15.3661L13.8484 16.4345C15.6235 15.3456 16.918 13.5599 17.3459 11.4655C17.436 11.0248 17.8663 10.7405 18.3069 10.8306Z" fill="#3A7DFF"/>
<path opacity="0.4" fill-rule="evenodd" clip-rule="evenodd" d="M9.99984 5.4165C10.4601 5.4165 10.8332 5.7896 10.8332 6.24984V6.77152C11.139 6.85024 11.4279 6.97128 11.6932 7.12802L12.0623 6.75894C12.3877 6.4335 12.9153 6.4335 13.2408 6.75894C13.5662 7.08438 13.5662 7.61201 13.2408 7.93745L12.8717 8.30654C13.0284 8.57175 13.1494 8.86067 13.2282 9.1665H13.7498C14.2101 9.1665 14.5832 9.53959 14.5832 9.99984C14.5832 10.4601 14.2101 10.8332 13.7498 10.8332H13.2282C13.1494 11.139 13.0284 11.4279 12.8717 11.6932L13.2408 12.0623C13.5662 12.3877 13.5662 12.9153 13.2408 13.2408C12.9153 13.5662 12.3877 13.5662 12.0623 13.2408L11.6932 12.8717C11.4279 13.0284 11.139 13.1494 10.8332 13.2282V13.7498C10.8332 14.2101 10.4601 14.5832 9.99984 14.5832C9.53959 14.5832 9.1665 14.2101 9.1665 13.7498V13.2282C8.86067 13.1494 8.57175 13.0284 8.30654 12.8717L7.93745 13.2408C7.612 13.5662 7.08437 13.5662 6.75893 13.2408C6.4335 12.9153 6.4335 12.3877 6.75893 12.0623L7.12802 11.6932C6.97128 11.4279 6.85024 11.139 6.77152 10.8332H6.24984C5.7896 10.8332 5.4165 10.4601 5.4165 9.99984C5.4165 9.53959 5.7896 9.1665 6.24984 9.1665H6.77152C6.85024 8.86067 6.97128 8.57175 7.12802 8.30654L6.75893 7.93745C6.4335 7.61201 6.4335 7.08438 6.75893 6.75894C7.08437 6.4335 7.612 6.4335 7.93745 6.75894L8.30653 7.12802C8.57175 6.97128 8.86067 6.85024 9.1665 6.77152V6.24984C9.1665 5.7896 9.53959 5.4165 9.99984 5.4165ZM8.81967 8.823L8.82134 8.82134L8.823 8.81967C9.1245 8.519 9.54042 8.33317 9.99984 8.33317C10.4593 8.33317 10.8752 8.519 11.1767 8.81967L11.1783 8.82134L11.18 8.823C11.4807 9.1245 11.6665 9.54042 11.6665 9.99984C11.6665 10.9203 10.9203 11.6665 9.99984 11.6665C9.07934 11.6665 8.33317 10.9203 8.33317 9.99984C8.33317 9.54042 8.519 9.1245 8.81967 8.823Z" fill="#3A7DFF"/>
</svg>
